<svg width="21" height="20" viewBox="0 0 21 20" fill="none" xmlns="http://www.w3.org/2000/svg">
<g clip-path="url(#clip0_387_380)">
<path d="M6.91675 18.75C7.6071 18.75 8.16675 18.1904 8.16675 17.5C8.16675 16.8096 7.6071 16.25 6.91675 16.25C6.22639 16.25 5.66675 16.8096 5.66675 17.5C5.66675 18.1904 6.22639 18.75 6.91675 18.75Z" fill="#C73B0F"/>
<path d="M15.6667 18.75C16.3571 18.75 16.9167 18.1904 16.9167 17.5C16.9167 16.8096 16.3571 16.25 15.6667 16.25C14.9764 16.25 14.4167 16.8096 14.4167 17.5C14.4167 18.1904 14.9764 18.75 15.6667 18.75Z" fill="#C73B0F"/>
<path d="M3.77925 1.7525C3.75094 1.61087 3.67445 1.48341 3.56279 1.3918C3.45113 1.3002 3.31118 1.25009 3.16675 1.25H0.666748V2.5H2.65425L5.05425 14.4975C5.08256 14.6391 5.15905 14.7666 5.27071 14.8582C5.38237 14.9498 5.52232 14.9999 5.66675 15H16.9167V13.75H6.17925L5.67925 11.25H16.9167C17.0589 11.25 17.1968 11.2015 17.3077 11.1125C17.4186 11.0235 17.4959 10.8994 17.5267 10.7606L18.9442 4.375H17.6649L16.4155 10H5.42925L3.77925 1.7525Z" fill="#C73B0F"/>
<path d="M11.9167 3.75V1.25H10.6667V3.75H8.16675V5H10.6667V7.5H11.9167V5H14.4167V3.75H11.9167Z" fill="#C73B0F"/>
</g>
<defs>
<clipPath id="clip0_387_380">
<rect width="20" height="20" fill="white" transform="translate(0.666748)"/>
</clipPath>
</defs>
</svg>
